<?xml version="1.0" standalone="no"?>
<!DOCTYPE svg PUBLIC "-//W3C//DTD SVG 20010904//EN"
 "http://www.w3.org/TR/2001/REC-SVG-20010904/DTD/svg10.dtd">
<svg version="1.0" xmlns="http://www.w3.org/2000/svg"
 width="588.000000pt" height="588.000000pt" viewBox="0 0 588.000000 588.000000"
 preserveAspectRatio="xMidYMid meet">
<metadata>
Created by potrace 1.11, written by Peter Selinger 2001-2013
</metadata>
<g transform="translate(0.000000,588.000000) scale(0.100000,-0.100000)"
fill="#000000" stroke="none">
<path d="M1095 5868 c-152 -14 -358 -75 -468 -140 -26 -15 -52 -28 -57 -28 -6
0 -10 -4 -10 -10 0 -5 -7 -10 -15 -10 -8 0 -15 -4 -15 -8 0 -4 -13 -15 -28
-24 -113 -67 -270 -248 -358 -415 -37 -69 -97 -232 -109 -295 -17 -90 107
-217 245 -253 53 -13 5262 -14 5320 -1 90 21 175 85 225 170 l28 48 -18 72
c-78 299 -258 549 -512 712 -132 84 -253 131 -443 171 -8 1 -44 5 -80 9 -96 8
-3611 10 -3705 2z m3749 -198 c161 -25 335 -99 457 -197 100 -79 221 -229 282
-348 26 -53 67 -169 67 -192 0 -7 -19 -25 -42 -40 l-41 -28 -2626 0 c-2126 1
-2630 3 -2649 14 -36 19 -62 44 -62 58 0 29 65 187 102 250 66 109 173 231
253 288 16 11 33 25 39 31 24 23 166 95 236 120 94 32 154 45 265 53 50 3 889
5 1865 5 1347 -1 1794 -4 1854 -14z"/>
<path d="M1350 5575 c-71 -19 -124 -50 -168 -100 -43 -49 -86 -130 -77 -145 3
-5 1 -11 -5 -15 -17 -11 -11 -112 11 -180 12 -36 26 -65 30 -65 5 0 9 -5 9
-11 0 -17 62 -78 105 -103 85 -49 92 -50 578 -51 501 -1 535 3 614 56 231 159
194 497 -67 604 -41 17 -82 19 -515 20 -333 1 -483 -2 -515 -10z m976 -196
c56 -26 87 -76 86 -135 -2 -63 -15 -86 -81 -131 -22 -16 -70 -17 -470 -18
-261 -1 -458 3 -476 8 -135 43 -138 233 -5 286 15 6 197 10 464 10 425 1 441
0 482 -20z"/>
<path d="M4522 5574 c-73 -19 -90 -29 -152 -85 -154 -142 -135 -380 43 -524
42 -34 145 -63 212 -58 183 11 328 172 319 354 -11 215 -216 367 -422 313z
m173 -205 c19 -13 35 -29 35 -36 0 -6 5 -13 12 -15 7 -3 11 -29 12 -65 1 -48
-4 -68 -20 -89 -63 -85 -177 -94 -242 -19 -31 36 -40 62 -37 111 7 120 139
182 240 113z"/>
<path d="M258 4611 c-113 -36 -196 -117 -232 -226 -15 -46 -16 -193 -16 -1667
0 -1670 0 -1680 41 -1835 120 -456 507 -796 982 -863 90 -13 3740 -14 3817 -1
112 19 127 23 215 53 429 145 731 510 795 962 15 104 14 3273 -2 3334 -29 119
-130 216 -263 251 -28 7 -851 10 -2660 10 -2493 0 -2623 -1 -2677 -18z m5315
-182 c36 -10 73 -43 95 -84 14 -27 15 -197 15 -1640 -1 -1426 -2 -1619 -16
-1692 -17 -85 -55 -202 -81 -250 -8 -15 -21 -39 -27 -53 -29 -57 -108 -160
-175 -226 -126 -124 -293 -219 -459 -260 -103 -25 -230 -27 -1980 -27 -1001 0
-1842 3 -1870 7 -104 15 -122 19 -195 43 -84 28 -164 67 -230 111 -24 17 -48
28 -54 25 -5 -3 -6 -1 -2 5 4 7 2 12 -3 12 -26 0 -191 182 -242 265 -30 49
-54 91 -54 94 -1 3 -6 15 -12 26 -37 68 -78 238 -83 350 -1 39 -3 770 -3 1625
0 1397 1 1558 15 1585 22 41 59 74 94 84 39 11 5229 11 5267 0z"/>
<path d="M2809 4166 c-2 -2 -35 -7 -72 -10 -186 -17 -519 -115 -612 -180 -16
-11 -32 -20 -35 -18 -10 5 -178 -100 -265 -166 -82 -61 -246 -216 -305 -288
-68 -82 -140 -186 -170 -244 -7 -14 -16 -27 -19 -30 -11 -8 -91 -178 -118
-249 -145 -380 -161 -785 -47 -1186 23 -82 119 -323 133 -335 3 -3 17 -25 30
-50 29 -55 130 -207 156 -235 6 -7 28 -33 50 -59 106 -128 267 -269 404 -353
258 -161 543 -260 826 -289 72 -7 248 -7 335 0 146 13 385 68 515 119 119 47
383 194 393 219 2 4 8 8 14 8 13 0 155 119 228 192 194 193 357 456 444 716
33 100 27 110 -74 117 -61 5 -102 25 -132 67 l-23 33 -3 395 c-2 258 0 407 7
431 19 64 67 103 141 114 82 13 87 32 36 151 -59 134 -124 250 -210 369 -71
97 -79 108 -181 210 -293 297 -654 476 -1085 540 -49 7 -355 16 -361 11z m316
-150 c33 -3 70 -8 81 -10 12 -3 37 -7 55 -10 34 -6 58 -11 102 -22 12 -3 29
-7 37 -9 8 -2 15 -4 15 -5 0 -1 9 -4 20 -6 27 -6 49 -12 55 -14 3 -1 8 -2 13
-1 4 0 7 -4 7 -10 0 -5 4 -8 9 -4 5 3 12 1 16 -5 4 -6 10 -8 15 -5 5 3 11 1
15 -5 4 -6 11 -8 16 -5 5 4 9 1 9 -4 0 -6 8 -11 18 -11 9 0 26 -7 36 -15 10
-8 23 -12 27 -9 5 3 9 0 9 -5 0 -6 6 -11 14 -11 7 0 30 -11 50 -25 21 -14 34
-20 30 -13 -8 14 36 -20 48 -37 4 -5 8 -6 8 -1 0 5 9 1 20 -9 11 -10 20 -15
20 -11 0 4 12 -5 27 -19 15 -14 33 -25 40 -25 6 0 13 -4 15 -8 2 -4 23 -23 48
-42 25 -19 52 -43 61 -52 9 -10 22 -18 28 -18 7 0 10 -4 7 -8 -2 -4 9 -17 25
-27 16 -11 29 -25 29 -31 0 -6 8 -18 18 -25 15 -12 16 -12 7 2 -5 8 -1 4 10
-10 11 -13 35 -40 53 -59 17 -18 32 -38 32 -43 0 -5 5 -9 10 -9 6 0 10 -7 10
-15 0 -7 6 -18 13 -22 7 -4 31 -35 52 -68 22 -33 44 -63 50 -67 5 -4 7 -8 3
-8 -4 0 0 -9 10 -20 9 -12 15 -22 12 -24 -3 -2 4 -13 14 -25 11 -12 15 -21 11
-21 -4 0 0 -9 10 -20 10 -11 15 -20 11 -20 -3 0 1 -11 10 -25 14 -22 14 -26 0
-47 -9 -12 -16 -19 -16 -15 0 7 -21 -9 -68 -50 -14 -13 -21 -23 -17 -23 5 0 0
-6 -11 -14 -10 -8 -19 -18 -19 -23 -1 -4 -6 -17 -12 -28 -6 -12 -14 -41 -18
-65 -11 -68 -7 -830 4 -857 1 -2 0 -4 0 -5 -1 -2 8 -23 21 -48 25 -49 93 -123
104 -113 3 3 6 1 6 -5 0 -11 38 -28 53 -24 5 1 6 -2 2 -8 -3 -5 -1 -10 4 -10
13 0 15 -33 4 -44 -5 -4 -8 -11 -9 -14 0 -4 -8 -24 -18 -44 -9 -21 -16 -41
-15 -44 0 -3 -8 -12 -18 -21 -10 -8 -11 -11 -3 -7 8 5 3 -8 -12 -28 -15 -19
-24 -38 -21 -42 4 -3 1 -6 -6 -6 -7 0 -10 -4 -7 -9 3 -5 -1 -12 -10 -15 -8 -3
-12 -10 -9 -16 3 -5 1 -10 -4 -10 -6 0 -11 -7 -11 -15 0 -8 -4 -15 -9 -15 -5
0 -14 -12 -20 -28 -6 -15 -25 -42 -42 -60 -16 -17 -27 -32 -23 -32 3 0 -11
-16 -32 -36 -22 -20 -33 -33 -25 -29 9 5 12 4 7 -3 -4 -7 -14 -12 -23 -12 -9
0 -14 -3 -10 -6 7 -8 -108 -124 -123 -124 -6 0 -9 -3 -7 -7 6 -10 -19 -34 -26
-27 -3 3 -13 -6 -22 -20 -10 -14 -23 -26 -30 -26 -7 0 -20 -10 -29 -23 -9 -12
-14 -15 -10 -7 4 8 -6 4 -22 -10 -16 -14 -30 -28 -32 -33 -2 -4 -7 -5 -12 -2
-4 3 -13 -2 -20 -10 -7 -8 -17 -15 -22 -15 -6 0 -27 -13 -48 -30 -21 -16 -42
-30 -47 -30 -16 0 -63 -25 -63 -33 0 -5 -4 -5 -10 -2 -5 3 -10 1 -10 -4 0 -6
-3 -10 -7 -9 -5 2 -28 -6 -53 -16 -25 -11 -48 -19 -52 -18 -5 1 -8 -3 -8 -10
0 -6 -3 -9 -6 -5 -4 3 -19 0 -35 -9 -16 -8 -29 -12 -29 -9 0 4 -6 3 -12 -2 -7
-4 -19 -9 -25 -10 -31 -7 -48 -12 -48 -13 0 -2 -30 -9 -60 -15 -11 -2 -31 -6
-45 -10 -109 -24 -166 -29 -355 -28 -216 1 -266 6 -417 46 -31 8 -59 12 -62 9
-3 -3 -6 -1 -6 4 0 5 -12 11 -27 12 -15 1 -29 5 -32 10 -6 7 -28 14 -48 15 -7
0 -13 4 -13 9 0 4 -6 8 -14 8 -7 0 -31 8 -52 17 -22 9 -42 16 -46 15 -5 -1 -8
2 -8 7 0 8 -42 24 -47 18 -1 -1 -9 7 -18 18 -9 11 -13 13 -9 5 7 -13 6 -13
-12 0 -10 8 -22 20 -26 25 -5 7 -8 7 -8 0 0 -5 -4 -4 -9 3 -4 7 -16 14 -25 16
-10 1 -22 9 -27 17 -5 8 -9 10 -9 6 0 -5 -6 -2 -14 5 -28 26 -56 48 -56 42 0
-3 -7 1 -15 8 -8 7 -26 22 -41 33 -14 11 -32 26 -39 32 -8 7 -19 13 -25 13 -6
0 -8 5 -5 10 3 6 1 10 -5 10 -6 0 -51 41 -101 91 -49 49 -83 87 -77 83 7 -3
-3 8 -22 26 -19 18 -28 29 -20 25 9 -4 9 -1 -2 8 -10 8 -18 20 -18 26 0 7 -4
9 -10 6 -5 -3 -10 1 -10 9 0 9 -5 16 -12 16 -6 0 -9 3 -5 6 3 3 -3 15 -14 27
-10 11 -25 33 -31 49 -7 15 -15 28 -18 28 -4 0 -17 22 -31 50 -13 27 -27 50
-31 50 -4 0 -4 7 -1 17 4 10 2 14 -4 10 -6 -4 -14 0 -17 9 -4 10 -2 13 7 8 6
-4 4 2 -6 13 -9 11 -14 23 -10 26 3 4 1 7 -6 7 -7 0 -9 5 -6 10 3 6 1 10 -5
10 -6 0 -9 4 -5 9 3 5 1 12 -5 16 -6 4 -8 11 -5 16 4 5 1 9 -5 9 -7 0 -10 7
-6 15 3 8 1 15 -5 15 -6 0 -7 5 -4 10 3 6 2 10 -4 10 -6 0 -8 6 -5 14 3 8 0
17 -5 21 -6 3 -9 11 -6 16 4 5 1 9 -5 9 -6 0 -8 5 -5 10 3 6 3 16 -2 23 -4 6
-8 17 -10 22 -1 6 -4 20 -7 33 -9 35 -22 93 -31 135 -29 147 -24 482 10 637 4
14 8 36 11 50 11 47 12 55 13 58 1 1 1 4 1 7 1 2 7 20 16 40 8 19 12 35 9 35
-3 0 1 13 9 29 9 16 12 31 9 35 -4 3 -1 6 6 6 7 0 10 4 7 8 -3 5 4 23 15 41
11 18 14 29 7 25 -6 -4 -2 7 11 24 12 18 19 32 15 32 -4 0 1 9 11 20 10 11 15
20 11 20 -4 0 1 12 12 28 11 15 21 32 21 37 1 6 9 19 17 30 8 11 15 23 14 28
0 4 11 20 25 35 14 15 25 32 25 38 0 7 7 14 15 18 8 3 15 11 15 17 0 7 8 18
18 26 11 9 11 12 2 8 -8 -4 3 10 25 30 22 21 33 35 25 31 -8 -4 -6 1 6 11 11
10 29 31 38 46 10 15 24 27 32 27 7 0 16 5 20 12 5 7 3 8 -6 3 -9 -5 -11 -4
-6 3 4 7 14 12 22 12 8 0 13 3 11 8 -6 9 19 33 27 25 3 -4 6 1 6 10 0 9 4 16
9 14 5 -1 24 14 42 33 17 19 29 28 25 20 -5 -9 -2 -8 7 3 8 9 20 17 26 17 7 0
10 4 7 8 -3 5 7 15 22 23 15 8 30 18 34 24 4 5 11 10 15 10 4 0 18 9 31 20 12
11 24 18 25 15 1 -3 9 1 17 8 16 14 81 55 90 57 3 1 33 15 66 33 34 17 64 28
68 25 3 -4 6 -1 6 6 0 7 5 9 10 6 6 -3 10 -1 10 5 0 6 4 9 9 6 4 -3 16 1 27 8
10 8 24 12 31 9 7 -3 13 0 13 7 0 6 4 9 9 5 5 -3 12 -1 16 4 3 6 12 8 20 4 8
-3 15 -1 15 4 0 5 8 10 18 11 21 2 57 10 57 12 0 2 34 10 60 15 11 2 20 4 20
5 0 2 27 6 90 14 17 3 30 5 30 6 0 1 26 4 59 6 32 2 60 5 62 7 5 5 232 0 299
-7z"/>
<path d="M2829 3885 c-3 -2 -23 -5 -44 -6 -66 -2 -211 -28 -282 -50 -93 -29
-236 -88 -245 -102 -4 -7 -8 -8 -8 -4 0 10 -113 -53 -118 -65 -2 -4 -9 -8 -15
-8 -20 0 -98 -56 -90 -64 5 -4 3 -6 -4 -4 -18 5 -124 -82 -117 -95 4 -7 3 -9
-1 -4 -11 10 -46 -23 -38 -36 3 -5 2 -7 -4 -4 -18 11 -188 -177 -177 -195 4
-7 2 -8 -5 -4 -6 4 -14 0 -18 -11 -4 -10 -9 -20 -13 -23 -24 -20 -146 -240
-133 -240 5 0 3 -4 -3 -8 -15 -10 -67 -141 -68 -174 -1 -14 -4 -24 -7 -22 -9
5 -41 -115 -35 -132 3 -8 2 -14 -3 -14 -5 0 -14 -53 -21 -117 -18 -169 -4
-458 27 -533 3 -8 6 -18 5 -22 -3 -13 30 -113 42 -127 6 -8 10 -15 8 -15 -8
-2 11 -56 20 -56 5 0 7 -3 4 -8 -7 -12 29 -83 39 -75 4 5 5 3 1 -4 -7 -13 64
-155 116 -232 71 -104 211 -259 230 -253 4 1 7 -2 6 -8 -4 -13 153 -141 164
-134 4 3 8 1 8 -5 0 -12 169 -114 227 -137 21 -8 56 -23 78 -33 96 -43 242
-84 351 -98 57 -8 383 -10 434 -4 68 9 147 22 160 28 8 3 22 7 30 8 35 5 100
29 100 37 0 5 4 6 10 3 14 -9 210 76 203 88 -3 6 -1 7 4 4 19 -12 177 84 283
171 74 61 241 233 235 242 -3 4 1 10 9 13 17 7 79 95 79 113 0 7 3 11 6 9 7
-4 75 117 85 151 5 17 -4 33 -38 70 -25 27 -57 70 -71 96 -48 88 -54 149 -55
573 -1 215 1 397 3 405 3 8 11 40 17 70 13 60 40 113 89 174 35 43 36 49 19
68 -7 7 -14 20 -16 28 -5 21 -56 100 -64 100 -5 0 -8 5 -8 11 0 51 -399 433
-432 413 -4 -3 -8 -1 -8 4 0 5 -12 15 -27 23 -16 7 -38 21 -50 30 -35 26 -233
110 -244 104 -5 -4 -9 -2 -9 3 0 23 -290 87 -362 80 -21 -2 -38 0 -38 4 0 8
-213 11 -221 3z"/>
</g>
</svg>
